<svg width="278" height="32" viewBox="0 0 278 32" fill="none" xmlns="http://www.w3.org/2000/svg">
<path d="M5.17054 28.5701V24.5923H17.6039V28.5701H5.17054ZM14.7661 14.1357L22.9668 32H17.652L10.774 16.2318H12.2169L5.31484 32H0L8.20072 14.1357H14.7661Z" fill="#070F15"/>
<path d="M36.892 23.2584L37.3008 22.3295C38.6956 22.3613 39.842 22.5756 40.7398 22.9726C41.6537 23.3537 42.3351 23.8936 42.784 24.5923C43.2329 25.2751 43.4573 26.0691 43.4573 26.9742C43.4573 27.9429 43.2329 28.8083 42.784 29.5705C42.3351 30.3168 41.6617 30.9123 40.7639 31.3569C39.8821 31.7857 38.7758 32 37.4451 32H24.1219L25.5168 22.8297L24.1219 14.1357H36.9641C38.6315 14.1357 39.9302 14.5248 40.8601 15.3029C41.7899 16.0651 42.2549 17.129 42.2549 18.4946C42.2549 19.241 42.0785 19.9555 41.7258 20.6383C41.3731 21.3212 40.8039 21.9008 40.0183 22.3771C39.2488 22.8376 38.2066 23.1314 36.892 23.2584ZM29.052 30.8567L27.1281 28.5463H36.0983C36.8198 28.5463 37.381 28.3716 37.7818 28.0222C38.1826 27.6729 38.383 27.1886 38.383 26.5693C38.383 25.95 38.1666 25.4577 37.7337 25.0925C37.3008 24.7114 36.6595 24.5208 35.8098 24.5208H28.4027V21.1385H35.1364C35.7136 21.1385 36.1945 20.9718 36.5793 20.6383C36.9801 20.289 37.1805 19.8206 37.1805 19.233C37.1805 18.7566 37.0122 18.3676 36.6755 18.0659C36.3388 17.7483 35.8579 17.5895 35.2326 17.5895H27.1521L29.052 15.2791L30.2785 22.8297L29.052 30.8567Z" fill="#070F15"/>
<path d="M50.8998 16.3033H55.902V32H50.8998V16.3033ZM44.0217 14.1357H62.78V18.5184H44.0217V14.1357Z" fill="#070F15"/>
<path d="M87.4045 32V14.1357H92.3586V28.0699L91.0359 27.0457L101.257 14.1357H106.523L91.9017 32H87.4045ZM96.014 23.4728L99.6695 20.4716L106.764 32H101.112L96.014 23.4728Z" fill="#070F15"/>
<path d="M130.336 14.1357H135.314V32H130.336V14.1357ZM144.525 14.1357H149.527V32H144.525V14.1357ZM133.125 20.7336H146.593V25.1163H133.125V20.7336Z" fill="#070F15"/>
<path d="M158.557 16.3033H163.559V32H158.557V16.3033ZM151.679 14.1357H170.437V18.5184H151.679V14.1357Z" fill="#070F15"/>
<path d="M172.586 32V14.1357H177.492V29.4038L176.121 29.0941L186.342 14.1357H192.859V32H187.929V16.4462L189.324 16.7558L178.911 32H172.586Z" fill="#070F15"/>
<path d="M196.236 14.1357H201.214V32H196.236V14.1357ZM210.425 14.1357H215.427V32H210.425V14.1357ZM199.025 20.7336H212.493V25.1163H199.025V20.7336Z" fill="#070F15"/>
<path d="M234.221 21.2815V24.8543H221.018V21.2815H234.221ZM224.409 23.0679L223.23 30.2374L221.21 27.9984H235.014V32H218.252L219.623 23.0679L218.252 14.1357H234.894V18.1373H221.21L223.23 15.8984L224.409 23.0679Z" fill="#070F15"/>
<path d="M237.899 14.1357H242.877V32H237.899V14.1357ZM252.088 14.1357H257.09V32H252.088V14.1357ZM240.688 20.7336H254.156V25.1163H240.688V20.7336Z" fill="#070F15"/>
<path d="M266.12 16.3033H271.122V32H266.12V16.3033ZM259.242 14.1357H278V18.5184H259.242V14.1357Z" fill="#070F15"/>
<path d="M75.6298 5.10493C69.0729 5.38041 64.0676 11.3201 64.1067 15.1287C68.1146 6.69248 79.0667 6.8149 87.0337 9.76849C86.4713 8.08961 83.597 5.95992 82.2301 5.10493C91.1616 2.22605 96.6728 7.18871 99.7272 10.761C108.575 9.5032 123.302 5.69975 127.736 15.6249C125.231 4.2116 116.213 6.19652 106.192 6.19652C103.687 6.19652 102.492 6.13094 101.016 5.92105C94.1677 -0.254999 86.6524 -1.18806 81.6422 1.23359C78.3617 2.8192 77.6339 4.2116 75.6298 5.10493Z" fill="#084493"/>
<path d="M75.1289 14.1357C80.1095 14.1358 84.1474 18.1344 84.1475 23.0674C84.1475 28.0004 80.1095 31.9999 75.1289 32C70.1482 32 66.1104 28.0005 66.1104 23.0674C66.1104 18.1344 70.1482 14.1357 75.1289 14.1357ZM75.1279 18.1055C72.3611 18.1057 70.1182 20.3269 70.1182 23.0674C70.1182 25.8078 72.3611 28.0291 75.1279 28.0293C77.895 28.0293 80.1387 25.808 80.1387 23.0674C80.1387 20.3268 77.895 18.1055 75.1279 18.1055Z" fill="#084493"/>
<path d="M117.215 14.1357C122.195 14.1358 126.233 18.1344 126.233 23.0674C126.233 28.0004 122.195 31.9999 117.215 32C112.234 32 108.196 28.0005 108.196 23.0674C108.196 18.1344 112.234 14.1357 117.215 14.1357ZM117.214 18.1055C114.447 18.1057 112.204 20.3269 112.204 23.0674C112.204 25.8078 114.447 28.0291 117.214 28.0293C119.981 28.0293 122.225 25.808 122.225 23.0674C122.225 20.3268 119.981 18.1055 117.214 18.1055Z" fill="#084493"/>
</svg>
