<svg xmlns="http://www.w3.org/2000/svg" version="1.1" xmlns:xlink="http://www.w3.org/1999/xlink" width="64" height="64"><svg width="64" height="64" viewBox="0 0 64 64" fill="none" xmlns="http://www.w3.org/2000/svg">
<path d="M46.6916 40.7175L51.724 41.0413C52.9145 38.4504 53.5638 35.6976 53.672 32.7828L50.263 34.51C50.1006 34.618 49.8842 34.618 49.6677 34.618C49.1807 34.618 48.7478 34.3481 48.5314 33.9163C48.2067 33.2686 48.4773 32.5129 49.1266 32.189L53.6179 29.9759C53.3474 27.1151 52.5357 24.3623 51.1829 21.8253L49.0725 25.01C48.8019 25.3879 48.4232 25.6038 47.9903 25.6038C47.7738 25.6038 47.5032 25.5498 47.2868 25.3878C46.6916 25.01 46.5292 24.2004 46.908 23.6066L49.6677 19.4503C48.9643 18.4787 48.1526 17.5072 47.2868 16.6435C46.0963 15.456 44.8517 14.4305 43.4448 13.6208L43.2284 17.4532C43.1743 18.1549 42.6331 18.6407 41.9838 18.6407H41.9297C41.2262 18.5867 40.6851 17.9929 40.7392 17.2912L41.0639 12.2714C38.4665 11.0839 35.7068 10.4361 32.7847 10.3281L34.5163 13.7287C34.841 14.3765 34.5704 15.1321 33.9211 15.456C33.7587 15.5639 33.5423 15.564 33.3258 15.564C32.8388 15.564 32.4059 15.2941 32.1895 14.8622L29.9709 10.3822C27.1029 10.652 24.3432 11.4617 21.7999 12.8111L24.9925 14.9162C25.5878 15.294 25.7501 16.1037 25.3713 16.6975C25.1008 17.0753 24.722 17.2912 24.2891 17.2912C24.0726 17.2912 23.8021 17.2372 23.5856 17.0753L19.419 14.3225C18.445 15.0242 17.4709 15.8339 16.6051 16.6975C15.4147 17.885 14.3865 19.1265 13.5749 20.5299L17.4168 20.7458C18.1203 20.7998 18.6614 21.3935 18.6073 22.0952C18.5532 22.7969 18.0121 23.2827 17.3627 23.2827H17.3086L12.2762 22.9589C11.0857 25.5498 10.4363 28.3027 10.3281 31.2174L13.7372 29.4901C14.3865 29.1663 15.1441 29.4362 15.4688 30.0839C15.7935 30.7317 15.5229 31.4873 14.8736 31.8112L10.3822 34.0242C10.6528 36.885 11.4645 39.6379 12.8173 42.1748L14.9277 38.9902C15.3065 38.3964 16.1181 38.2345 16.7134 38.6123C17.3086 38.9902 17.4709 39.7998 17.0922 40.3936L14.3324 44.5498C15.0359 45.5214 15.8476 46.4931 16.7134 47.3567C17.9038 48.5442 19.1484 49.5698 20.5553 50.3794L20.7718 46.547C20.8259 45.8453 21.4211 45.3055 22.1246 45.3595C22.828 45.4135 23.3692 46.0072 23.3151 46.7089L22.9904 51.7289C25.5878 52.9164 28.3475 53.5641 31.2696 53.672L29.538 50.2714C29.2133 49.6237 29.4839 48.868 30.1332 48.5442C30.7826 48.2203 31.5401 48.4902 31.8648 49.1379L34.0834 53.6181C36.9513 53.3482 39.7111 52.5385 42.2544 51.1891L39.0617 49.084C38.4665 48.7061 38.3042 47.8964 38.6829 47.3027C39.0617 46.7089 39.8734 46.547 40.4687 46.9249L44.6353 49.6777C45.6093 48.976 46.5833 48.1663 47.4491 47.3027C48.6396 46.1152 49.6677 44.8737 50.4794 43.4703L46.6374 43.2544C45.934 43.2004 45.3929 42.6066 45.447 41.9049C45.3929 41.2572 45.9881 40.7175 46.6916 40.7175ZM21.854 36.3453C21.2588 34.9959 20.9341 33.5385 20.9341 31.9731C20.9341 30.4078 21.2588 28.9503 21.854 27.6009L26.8324 30.4617C26.67 30.9475 26.6159 31.4334 26.6159 31.9731C26.6159 32.5129 26.67 32.9987 26.8324 33.4845L21.854 36.3453ZM30.6743 42.8765C27.5899 42.4987 24.8843 40.8794 23.0986 38.5044L28.0769 35.6436C28.7804 36.3453 29.6462 36.8851 30.6743 37.155V42.8765ZM30.6743 26.7912C29.6462 27.0611 28.7804 27.547 28.0769 28.3026L23.0986 25.4418C24.8843 23.0668 27.5899 21.4475 30.6743 21.0696V26.7912ZM33.2176 21.0696C36.302 21.4475 39.0076 23.0668 40.7933 25.4418L35.815 28.3026C35.1115 27.6009 34.2457 27.0611 33.2176 26.7912V21.0696ZM33.2176 42.8765V37.155C34.2457 36.8851 35.1115 36.3992 35.815 35.6436L40.7933 38.5044C39.0076 40.8794 36.302 42.5527 33.2176 42.8765ZM42.0379 36.3453L37.0596 33.4845C37.2219 32.9987 37.276 32.5129 37.276 31.9731C37.276 31.4334 37.2219 30.9475 37.0596 30.4617L42.0379 27.6009C42.6331 28.9503 42.9578 30.4078 42.9578 31.9731C42.9578 33.5385 42.6331 34.9959 42.0379 36.3453Z" fill="#084493"></path>
<path d="M56.8889 32C56.8889 18.2542 45.7458 7.11111 32 7.11111C18.2542 7.11111 7.11111 18.2542 7.11111 32C7.11111 45.7458 18.2542 56.8889 32 56.8889C45.7458 56.8889 56.8889 45.7458 56.8889 32ZM64 32C64 49.6731 49.6731 64 32 64C14.3269 64 0 49.6731 0 32C0 14.3269 14.3269 0 32 0C49.6731 0 64 14.3269 64 32Z" fill="#084493"></path>
</svg><style>@media (prefers-color-scheme: light) { :root { filter: none; } }
@media (prefers-color-scheme: dark) { :root { filter: none; } }
</style></svg>